Coordinates
version=1
nRows=29
nColumns=24
inDegrees=yes

Units are S.I. units (second, meters, Newtons, ...)
Angles are in degrees.

endheader
time	pelvis_tilt	pelvis_list	pelvis_rotation	pelvis_tx	pelvis_ty	pelvis_tz	hip_flexion_r	hip_adduction_r	hip_rotation_r	knee_angle_r	ankle_angle_r	subtalar_angle_r	mtp_angle_r	hip_flexion_l	hip_adduction_l	hip_rotation_l	knee_angle_l	ankle_angle_l	subtalar_angle_l	mtp_angle_l	lumbar_extension	lumbar_bending	lumbar_rotation
      5.18000000	    -16.32545841	    -10.20580976	      0.17196396	      2.90775310	     -0.01728283	     -0.45698712	     23.45704994	     12.54894017	     -2.01586369	     -2.49943002	    -12.98248950	     -3.34938646	      2.15139278	     18.65265921	    -17.82635873	    -12.24901487	    -56.32014319	    -29.27529317	     12.83429215	     28.35353985	     16.81676409	     11.79507890	     -8.11353716
      5.18500000	    -16.14940696	    -10.17317944	      0.18699883	      2.91303577	     -0.01662084	     -0.45637891	     22.86425423	     12.59086582	     -1.91303220	     -2.37811059	    -12.71052245	     -3.27922662	      2.30888890	     19.31128193	    -17.83388814	    -11.91693162	    -57.34876589	    -28.33871980	     11.98214373	     27.91768818	     16.60916628	     11.73246378	     -7.90246112
      5.19000000	    -15.97129047	    -10.11259257	      0.20369504	      2.91843425	     -0.01593400	     -0.45576331	     22.24706251	     12.60654787	     -1.79252075	     -2.23501317	    -12.41811078	     -3.23113040	      2.44235903	     19.93511405	    -17.80259720	    -11.60830989	    -58.25889979	    -27.50386220	     11.22293985	     27.69627131	     16.42752210	     11.63637028	     -7.67594414
      5.19500000	    -15.79078216	    -10.05019818	      0.18607600	      2.92369932	     -0.01523781	     -0.45511039	     21.64690443	     12.63255972	     -1.66186015	     -2.11889195	    -12.15360490	     -3.17300207	      2.55109067	     20.55140833	    -17.77865004	    -11.33552926	    -59.10149759	    -26.75219257	     10.60215433	     27.63688113	     16.21683620	     11.55320635	     -7.40809110
      5.20000000	    -15.60869420	     -9.91442737	      0.17736504	      2.92895857	     -0.01449735	     -0.45448764	     21.04261306	     12.57614144	     -1.51893888	     -2.00550964	    -11.86141968	     -3.09325515	      2.68399191	     21.14180040	    -17.64691099	    -11.06253244	    -59.84908739	    -26.02387370	     10.14084511	     27.55483538	     16.00904639	     11.38813120	     -7.13923231
      5.20500000	    -15.42042451	     -9.76723648	      0.13103283	      2.93420612	     -0.01374269	     -0.45383122	     20.43037965	     12.51955225	     -1.37881180	     -1.89240921	    -11.59516039	     -2.97003789	      2.86408584	     21.69144624	    -17.51182025	    -10.83630971	    -60.51568787	    -25.29154977	      9.89096674	     27.54175521	     15.79158862	     11.22584480	     -6.83142059
      5.21000000	    -15.28649141	     -9.62108327	      0.06540325	      2.93935906	     -0.01306556	     -0.45312445	     19.89486627	     12.47101078	     -1.21139003	     -1.80700647	    -11.32906039	     -2.92148949	      2.95523318	     22.29859500	    -17.37863162	    -10.61751984	    -61.10808690	    -24.66854578	      9.71394788	     27.80010055	     15.62537461	     11.06163617	     -6.51076518
      5.21500000	    -15.10982232	     -9.42356106	     -0.01778294	      2.94453708	     -0.01229841	     -0.45244383	     19.29726480	     12.36721440	     -1.01232569	     -1.70043139	    -11.06963400	     -2.80076014	      3.12173950	     22.81163322	    -17.17928418	    -10.43528656	    -61.59559512	    -24.05344508	      9.70348754	     28.07142347	     15.41560754	     10.85928428	     -6.15779104
      5.22000000	    -14.97637192	     -9.22449090	     -0.09336865	      2.94958764	     -0.01160842	     -0.45174605	     18.77937773	     12.26099637	     -0.84048167	     -1.63947704	    -10.79895997	     -2.75174337	      3.22649497	     23.38600410	    -16.96609556	    -10.25153677	    -62.03799048	    -23.46595831	      9.68917658	     28.37770289	     15.24402783	     10.64087909	     -5.82716789
      5.22500000	    -14.84098881	     -8.98669014	     -0.19870393	      2.95465794	     -0.01089113	     -0.45103046	     18.25257078	     12.11712739	     -0.62359632	     -1.57496287	    -10.52715901	     -2.66337082	      3.34988198	     23.91279341	    -16.70932977	    -10.10219469	    -62.38247224	    -22.87593559	      9.84596631	     28.75301594	     15.07403608	     10.39504761	     -5.46398084
      5.23000000	    -14.65725776	     -8.76140508	     -0.35082066	      2.95975396	     -0.01012850	     -0.45025992	     17.66365515	     11.99932635	     -0.38393400	     -1.49654486	    -10.28465705	     -2.54176081	      3.54416887	     24.34216290	    -16.49186504	    -10.01829249	    -62.64140755	    -22.28823997	     10.13985866	     29.22812922	     14.85400383	     10.18217622	     -5.03757188
      5.23500000	    -14.54990340	     -8.48573078	     -0.44608457	      2.96471097	     -0.00943942	     -0.44957136	     17.19620514	     11.80349788	     -0.17414167	     -1.46737728	    -10.01418295	     -2.48556356	      3.65541226	     24.88290572	    -16.16524028	     -9.88498934	    -62.85588259	    -21.71287446	     10.33175829	     29.57910058	     14.71319568	      9.88807111	     -4.71102914
      5.24000000	    -14.36543574	     -8.22274947	     -0.62347710	      2.96970704	     -0.00867522	     -0.44876779	     16.63258583	     11.64482548	      0.09203890	     -1.42573060	     -9.77695017	     -2.37285660	      3.88756277	     25.27303102	    -15.90257697	     -9.84886610	    -62.97693277	    -21.11910219	     10.72985053	     30.04703912	     14.48386576	      9.64011961	     -4.26644961
      5.24500000	    -14.25776253	     -7.93556858	     -0.78360402	      2.97468162	     -0.00799832	     -0.44798452	     16.17060892	     11.45016854	      0.32793227	     -1.41112148	     -9.51841422	     -2.27490124	      4.04081764	     25.74774971	    -15.59265535	     -9.81019474	    -63.04910460	    -20.51253454	     11.07008724	     30.40383367	     14.35056551	      9.35175551	     -3.87484621
      5.25000000	    -14.14482500	     -7.63886177	     -0.94914037	      2.97960523	     -0.00731944	     -0.44721164	     15.71600441	     11.24035765	      0.57458127	     -1.41280521	     -9.26113600	     -2.16824468	      4.18652579	     26.20388684	    -15.26895826	     -9.78858660	    -63.06222727	    -19.90943544	     11.41445836	     30.71082088	     14.20734328	      9.05726748	     -3.48261149
      5.25500000	    -14.06243096	     -7.33078150	     -1.06795863	      2.98448905	     -0.00669494	     -0.44648582	     15.31053228	     11.00211530	      0.79248929	     -1.43132785	     -8.98215226	     -2.10499475	      4.29187950	     26.70641062	    -14.90235805	     -9.73643906	    -63.02696402	    -19.33862544	     11.65328688	     30.94731226	     14.10719167	      8.72617213	     -3.17380358
      5.26000000	    -13.93186402	     -7.02603540	     -1.29901469	      2.98939342	     -0.00602530	     -0.44562957	     14.84774784	     10.79485820	      1.07180221	     -1.45317596	     -8.72409310	     -1.95367223	      4.44639892	     27.08575923	    -14.60876290	     -9.81988443	    -62.92145009	    -18.71626930	     12.02777997	     31.14041086	     13.94489415	      8.44331747	     -2.70347500
      5.26500000	    -13.83076837	     -6.71387036	     -1.45843429	      2.99431170	     -0.00542052	     -0.44485321	     14.42029680	     10.55659964	      1.30910972	     -1.46979639	     -8.44222144	     -1.86845324	      4.57662855	     27.51521957	    -14.26627284	     -9.85555901	    -62.77179719	    -18.14113170	     12.24546604	     31.23363578	     13.83618514	      8.12094131	     -2.34303373
      5.27000000	    -13.75683375	     -6.40788968	     -1.59643278	      2.99910786	     -0.00486250	     -0.44413133	     14.04771666	     10.31213518	      1.53520038	     -1.51257800	     -8.18110305	     -1.80151807	      4.67215254	     27.98470819	    -13.90668024	     -9.85808579	    -62.57761302	    -17.58808241	     12.36586477	     31.30885188	     13.74640461	      7.79642176	     -2.05935281
      5.27500000	    -13.60767154	     -6.09055009	     -1.85264884	      3.00394360	     -0.00424218	     -0.44327846	     13.58140133	     10.08205369	      1.84229280	     -1.54953621	     -7.91021787	     -1.65696321	      4.81885217	     28.29763664	    -13.61367950	    -10.03910825	    -62.33053992	    -16.97758489	     12.49738124	     31.14198451	     13.56576143	      7.50359622	     -1.59173087
      5.28000000	    -13.51529089	     -5.77785706	     -2.03144084	      3.00878057	     -0.00370491	     -0.44250643	     13.17934908	      9.83608208	      2.07703803	     -1.57453785	     -7.65679466	     -1.58511158	      4.91380340	     28.69325756	    -13.27723636	    -10.13885895	    -62.03346276	    -16.43000178	     12.48403963	     30.98153486	     13.46584233	      7.18282040	     -1.23982108
      5.28500000	    -13.42482605	     -5.47569190	     -2.20951533	      3.01359539	     -0.00321013	     -0.44175801	     12.77969956	      9.59448534	      2.32578677	     -1.59617015	     -7.39294931	     -1.51581706	      4.98815075	     29.08305104	    -12.94990600	    -10.24518839	    -61.69492802	    -15.90825820	     12.37292862	     30.76406433	     13.36904712	      6.87365254	     -0.90378255
      5.29000000	    -13.31348078	     -5.18837792	     -2.37624062	      3.01843822	     -0.00272878	     -0.44104008	     12.34295346	      9.35970274	      2.58027287	     -1.59049564	     -7.13388117	     -1.45654263	      5.02643817	     29.43656632	    -12.63198878	    -10.35225697	    -61.31690369	    -15.36733971	     12.21864427	     30.41426355	     13.25892780	      6.57518214	     -0.60779428
      5.29500000	    -13.25397401	     -4.89950917	     -2.55362647	      3.02319471	     -0.00233403	     -0.44030593	     11.98448738	      9.12712432	      2.81080583	     -1.61368563	     -6.86983271	     -1.40274309	      5.05591902	     29.84144418	    -12.31686294	    -10.47343167	    -60.88575553	    -14.91547389	     11.89536985	     30.15761955	     13.19382772	      6.27640026	     -0.28487219
      5.30000000	    -13.14939470	     -4.62142153	     -2.72708641	      3.02802789	     -0.00191745	     -0.43960351	     11.54745787	      8.89478299	      3.06181890	     -1.58798429	     -6.60563283	     -1.33287924	      5.02850967	     30.17149627	    -12.01142001	    -10.60916960	    -60.41141617	    -14.43351043	     11.56275264	     29.72754001	     13.09498665	      5.98921641	      0.01501244
      5.30500000	    -13.09049127	     -4.35493618	     -2.89570515	      3.03275829	     -0.00160271	     -0.43892156	     11.18226373	      8.67334379	      3.28756256	     -1.58945295	     -6.33108626	     -1.27596492	      5.02308788	     30.55783320	    -11.71260968	    -10.73438865	    -59.89952659	    -14.02776488	     11.08676112	     29.36403529	     13.03210346	      5.71319262	      0.31422489
      5.31000000	    -13.01531481	     -4.09444007	     -3.06488122	      3.03751275	     -0.00129521	     -0.43824686	     10.78869221	      8.45342464	      3.50317222	     -1.56997249	     -6.06201668	     -1.20283894	      4.99456508	     30.90449245	    -11.42233240	    -10.87657621	    -59.33950947	    -13.62227781	     10.58273458	     28.92250124	     12.95707713	      5.44082009	      0.59955823
      5.31500000	    -12.93875426	     -3.84573199	     -3.22786917	      3.04226770	     -0.00102222	     -0.43759346	     10.38938039	      8.24042550	      3.70194464	     -1.54006504	     -5.79000473	     -1.11981451	      4.94874179	     31.23738392	    -11.14119744	    -11.01839026	    -58.73894784	    -13.23189182	     10.05433430	     28.43109729	     12.88235286	      5.17845802	      0.87040868
      5.32000000	    -12.87875939	     -3.60180122	     -3.38406856	      3.04696885	     -0.00079704	     -0.43696215	     10.01954398	      8.02939410	      3.87675057	     -1.52118265	     -5.52540204	     -1.04215061	      4.91146380	     31.57914100	    -10.85943287	    -11.15400771	    -58.09139553	    -12.86800513	      9.49567015	     27.94941071	     12.81754083	      4.91793705	      1.11445299
